<?xml version="1.0" encoding="utf-8"?>
<!-- Generator: Adobe Illustrator 25.0.1, SVG Export Plug-In . SVG Version: 6.00 Build 0)  -->
<svg version="1.1" id="Layer_1" xmlns="http://www.w3.org/2000/svg" xmlns:xlink="http://www.w3.org/1999/xlink" x="0px" y="0px"
	 viewBox="0 0 200 200" style="enable-background:new 0 0 200 200;" xml:space="preserve">
<style type="text/css">
	.st0{fill:none;stroke:#FFFFFF;stroke-width:7.81;stroke-miterlimit:10;}
	.st1{fill:none;stroke:#FFFFFF;stroke-width:7.81;stroke-linecap:round;stroke-linejoin:round;}
	.st2{fill:none;stroke:#FFFFFF;stroke-width:7.81;stroke-linecap:round;stroke-linejoin:round;stroke-dasharray:0,0,0,18.6696,0,0;}
	
		.st3{fill:none;stroke:#FFFFFF;stroke-width:7.81;stroke-linecap:round;stroke-linejoin:round;stroke-dasharray:18.6696,0,0,0,0,18.6696;}
	.st4{fill:#FFFFFF;}
</style>
<g>
	<g>
		<g>
			<path class="st0" d="M100.6,194.9c-52.4,0-94.9-42.5-94.9-94.9S48.2,5.1,100.6,5.1"/>
		</g>
		<g>
			<g>
				<path class="st1" d="M99.4,194.9c3.1,0,6.1-0.1,9.1-0.4"/>
				<path class="st2" d="M108.5,194.5c6-0.6,11.8-1.7,17.3-3.3"/>
				<path class="st3" d="M126.8,190.9c39.1-11.8,67.5-48,67.5-90.9c0-49.4-37.7-89.9-85.9-94.5"/>
				<path class="st1" d="M108.5,5.5c-3-0.3-6-0.4-9.1-0.4"/>
			</g>
		</g>
	</g>
	<g>
		<path class="st4" d="M155.9,95.3L77.1,49.5c-3.7-2.1-8.2,0.5-8.2,4.7v91.6c0,4.2,4.6,6.9,8.2,4.7l78.8-45.8
			C159.6,102.6,159.6,97.4,155.9,95.3z"/>
	</g>
</g>
</svg>
